<?xml version="1.0" standalone="no"?>
<!DOCTYPE svg PUBLIC "-//W3C//DTD SVG 20010904//EN"
 "http://www.w3.org/TR/2001/REC-SVG-20010904/DTD/svg10.dtd">
<svg version="1.0" xmlns="http://www.w3.org/2000/svg"
 width="512.000000pt" height="512.000000pt" viewBox="0 0 512.000000 512.000000"
 preserveAspectRatio="xMidYMid meet">
<metadata>
Created by potrace 1.14, written by Peter Selinger 2001-2017
</metadata>
<g transform="translate(0.000000,512.000000) scale(0.100000,-0.100000)"
fill="#000000" stroke="none">
<path d="M2660 3378 c-117 -315 -219 -586 -225 -603 -19 -45 -67 -175 -115
-305 -23 -63 -46 -124 -50 -135 -5 -11 -57 -148 -116 -305 -58 -157 -153 -411
-210 -564 -59 -159 -101 -283 -96 -288 5 -5 77 -7 161 -6 l153 3 39 105 c21
58 47 128 58 155 73 191 120 316 287 760 103 275 195 523 204 550 10 28 33 91
53 140 47 123 256 678 278 740 9 28 40 110 68 184 28 73 51 135 51 137 0 2
-73 4 -163 4 l-163 0 -214 -572z"/>
<path d="M1525 3626 c-22 -12 -80 -44 -130 -71 -49 -26 -108 -58 -130 -70 -22
-12 -74 -40 -115 -63 -41 -22 -100 -53 -130 -70 -97 -52 -523 -284 -590 -320
-36 -19 -96 -52 -133 -73 -38 -22 -71 -39 -73 -39 -2 0 -53 -27 -114 -61
l-110 -60 0 -238 0 -237 33 -17 c40 -20 174 -94 289 -158 48 -27 90 -49 92
-49 2 0 35 -17 73 -39 111 -63 364 -201 368 -201 2 0 30 -15 62 -34 32 -18 87
-49 123 -68 128 -69 426 -232 467 -255 23 -12 46 -23 51 -23 6 0 9 111 8 272
l-1 273 -545 271 -545 272 140 67 c77 37 190 91 250 120 61 29 198 95 305 147
107 52 240 116 296 142 l101 49 1 278 c0 154 -1 279 -1 279 -1 -1 -20 -11 -42
-24z"/>
<path d="M3552 3370 l0 -271 202 -99 c110 -54 349 -170 529 -259 181 -88 332
-161 337 -161 45 0 -38 -47 -398 -225 -229 -113 -473 -234 -542 -269 l-125
-62 -1 -272 c-1 -197 1 -272 10 -272 6 0 25 8 41 18 17 10 62 36 100 57 39 20
94 51 123 66 28 16 76 42 105 58 28 15 153 83 276 151 123 67 258 140 300 162
42 23 81 44 86 48 6 4 46 26 90 50 44 24 105 57 135 73 168 93 200 110 248
134 l52 27 0 237 0 237 -77 43 c-43 23 -107 58 -143 77 -36 19 -87 47 -115 62
-27 15 -80 44 -117 63 -61 34 -449 244 -563 307 -27 15 -86 46 -130 70 -44 24
-105 56 -135 73 -30 17 -75 41 -100 55 -25 13 -67 37 -95 52 -101 56 -92 79
-93 -230z"/>
</g>
</svg>
